DBRep_DrawableShape

CASCADE Topology V1, (c) Matra-Datavision
Locations 2
1
              1               0               0               0 
              0               1               0               0 
              0               0               1               0 
2  1 -1 0
Curve2ds 6
1 0 0.78539816339744828 1 0 
2 0 0 1 0 -0 1 3.5355339059327378
1 6.2831853071795862 -6.2831853071795862 0 1 
1 0 -6.2831853071795862 0 1 
1 0 -1.1344640137963142 1 0 
2 0 0 1 0 -0 1 2.1130913087034973
Curves 3
2 0 0 3.5355339059327373 0 0 1 1 0 -0 -0 1 0 3.5355339059327378
2 0 0 0 -2.4492935982947064e-16 -1 0 1 -2.4492935982947064e-16 0 0 0 1 5
2 0 0 -4.5315389351832494 0 0 1 1 0 -0 -0 1 0 2.1130913087034973
Polygon3D 0
PolygonOnTriangulations 0
Surfaces 3
4 0 0 0 0 0 1 1 0 -0 -0 1 0 5
1 0 0 3.5355339059327373 0 0 1 1 0 -0 -0 1 0 
1 0 0 -4.5315389351832494 0 0 1 1 0 -0 -0 1 0 
Triangulations 0

TShapes 13
Ve
1e-07
3.53553390593274 -8.65956056235493e-16 3.53553390593274
0 0

0101101
*
Ed
 1e-07 1 1 0
1  1 0 0 6.28318530717959
2  1 1 0 0 6.28318530717959
2  2 2 0 0 6.28318530717959
0

0101000
+13 2 -13 2 *
Ve
1e-07
2.1130913087035 -5.17558101501966e-16 -4.53153893518325
0 0

0101101
*
Ed
 1e-07 1 1 0
1  2 0 5.14872129338327 7.06858347057703
3  3 4CN 1 0 5.14872129338327 7.06858347057703
0

0101000
-13 2 +11 2 *
Ed
 1e-07 1 1 0
1  3 0 0 6.28318530717959
2  5 1 0 0 6.28318530717959
2  6 3 0 0 6.28318530717959
0

0101000
+11 2 -11 2 *
Wi

0101100
-12 0 +10 0 +9 0 -10 0 *
Fa
0  1e-07 1 0

0101000
+8 0 *
Wi

0101100
+12 0 *
Fa
0  1e-07 2 0

0101000
+6 0 *
Wi

0101100
-9 0 *
Fa
0  1e-07 3 0

0101000
-4 0 *
Sh

0101100
+7 0 +5 0 -3 0 *
So

1100000
+2 0 *

+1 1 