DBRep_DrawableShape

CASCADE Topology V1, (c) Matra-Datavision
Locations 11
1
              1               0               0               0 
              0               1               0               0 
              0               0               1               0 
1
              1               0               0               0 
              0               1               0               0 
              0               0               1               0 
1
              1               0               0               0 
              0               1               0               0 
              0               0               1               0 
1
              1               0               0               0 
              0               1               0               0 
              0               0               1               0 
2  3 1 4 1 0
2  1 -1 2 -1 4 -1 3 -1 0
1
              1               0               0               0 
              0               1               0            -5.9 
              0               0               1               0 
2  1 -1 2 -1 0
2  7 1 2 1 0
1
              1               0               0              -6 
              0               1               0           -13.5 
              0               0               1              -6 
2  1 -1 0
Curve2ds 8
1 0 1.5707963267948966 1 0 
1 6.2831853071795862 -6.2831853071795862 0 1 
1 0 -6.2831853071795862 0 1 
1 0 -1.5707963267948966 1 0 
7 0 0  10 74 9  4.7123889803846915 -0.93973748601687512  4.8198691555708857 -0.93973748590939499  4.9273490108389524 -0.93035774115833192  5.0304609830491245 -0.91160191797825973  5.124834906659089 -0.88413466380734462  5.2077007432235405 -0.84938562901515979  5.2800643915543333 -0.80881225306075066  5.3424442662508227 -0.76349603637936525  5.3961194922885625 -0.71439708905472799  5.4421049541988875 -0.66224230076706647  5.5500388780353633 -0.51204849867946656  5.5980896535838838 -0.40893246771932468  5.6305659429635853 -0.30145423229760127  5.6513381061377004 -0.19140017775771412  5.6618835156550631 -0.079893902963704022  5.6633192531298846 0.032098168699121743  5.6554441372281872 0.14374333029036279  5.6376040662071318 0.25409194171106719  5.6077170395743501 0.36192340824976937  5.545101541891901 0.50387895576930963  5.5258235269483373 0.54194851261915455  5.5041544965857661 0.57926312813798364  5.4798733826377433 0.61569696395228368  5.4527289947481119 0.65110307910213616  5.4224398945316361 0.68530934518600295  5.3887002708415404 0.71811274353524768  5.3512004647333251 0.7492732741857151  5.3096723227693321 0.77851208236629066  5.2239825063839209 0.82915527326133454  5.1807991700925049 0.8510821225953118  5.1343217069730667 0.87109635642108896  5.0845297145599035 0.88897557509232394  5.0315007187382434 0.90448612523080862  4.9754791349258696 0.9173936087729242  4.9169270316380453 0.92748416363820174  4.8565174500480959 0.93459325421113504  4.7950599862663976 0.93863001528619949  4.6254325885040037 0.94123284435754606  4.5167991389898816 0.93342496375862538  4.411898955644574 0.91606209575547837  4.3153303931467235 0.88972370716510341  4.2303561849985272 0.8558136895444477  4.1560658341622911 0.81586028629681095  4.0919838152185548 0.77097057868377306  4.0368348107804195 0.72215037389105419  3.9895793415531058 0.67015465023463305  3.8887285976332704 0.53377492902237389  3.8437800382103022 0.44619485642679635  3.8111119785260597 0.3549449173047492  3.7880874294467501 0.26132065400124704  3.7732571052838466 0.1661876751102227  3.7657793679740279 0.070225062438112218  3.7652554032762056 -0.025969862370476448  3.7718432545090024 -0.1218226033892305  3.7861790435772789 -0.21667018057928833  3.8213676059953769 -0.35607450428924581  3.8353777210048889 -0.40206475887841242  3.8518397150191399 -0.44746362137473705  3.8709683985314762 -0.49214252398105601  3.8930289712229245 -0.53595130483154207  3.9183397260238655 -0.57871283913347427  3.9472771925383938 -0.62021444777164081  3.9802762194128269 -0.66019589799326173  4.0178033960148554 -0.69833804413851674  4.1027328331346302 -0.77018273531944581  4.1501355262587198 -0.80388521563881421  4.2028815763280365 -0.83498822570404629  4.2613385307602583 -0.86304814966279086  4.3256771680025849 -0.8875674257742503  4.3958582276827656 -0.9079907577630365  4.4712470010195826 -0.92375552640924075  4.5503818076989164 -0.93440979160760984  4.6313852445007582 -0.93973748593587147  4.7123889803846888 -0.93973748601687512 
 0 11 0.78539816339743851 9 2.1598449493429577 9 2.6752624940725362 9 3.126252845710912 9 3.9154859610780739 9 5.0993356341288276 9 5.6912604706542043 9 6.2831853071795862 11
7 0 0  10 74 9  1.5707963267948974 -0.93973748601687512  1.463316151608701 -0.93973748590939499  1.355836296454072 -0.93035774115833192  1.2527243240110693 -0.91160191797825973  1.1583504002483096 -0.88413466380734462  1.0754845640040003 -0.84938562901515979  1.0031209141452564 -0.80881225306075066  0.94074104067840381 -0.76349603637936525  0.88706581499172898 -0.71439708905472799  0.84108035298069872 -0.66224230076706647  0.73314642914422223 -0.51204849867946645  0.68509565401291184 -0.40893246772114367  0.65261936296519707 -0.30145423229760127  0.63184720290882979 -0.19140017775771412  0.62130178950610571 -0.079893902963704022  0.61986605609126855 0.032098168699121743  0.62774116847867845 0.14374333029036279  0.64558124131872319 0.2540919417092482  0.67546826760523615 0.36192340824976937  0.73808376528768438 0.50387895576930963  0.75736178023081036 0.54194851261915455  0.77903081059910573 0.57926312813798364  0.80331192453929057 0.61569696395228368  0.83045631242202944 0.65110307910213616  0.86074541264461002 0.68530934518600295  0.89448503634057219 0.71811274353524768  0.93198484244214386 0.7492732741857151  0.97351298441025447 0.77851208236629066  1.0592028007956658 0.82915527326133454  1.1023861370891193 0.8510821225953118  1.1488636001964714 0.87109635642108896  1.1986555926107483 0.88897557509232394  1.2516845884353338 0.90448612523080862  1.3077061722407961 0.9173936087729242  1.3662582755264541 0.92748416363820174  1.4266678571307696 0.93459325421113504  1.4881253209131879 0.93863001528619949  1.6577527186755816 0.94123284435754606  1.7663861684650328 0.93342496375862538  1.8712863509135786 0.91606209575547837  1.9678549138479866 0.88972370716510341  2.0528291221125983 0.8558136895444477  2.1271194733562879 0.81586028629681095  2.191201490801177 0.77097057868377306  2.2463504965089669 0.72215037389105419  2.2936059656264804 0.67015465023463305  2.3944567095463158 0.53377492902237389  2.4394052689683572 0.44619485642679635  2.4720733285390453 0.3549449173047492  2.4950978776309056 0.26132065400124704  2.5099282017581572 0.1661876751102227  2.5174059391225456 0.070225062438112218  2.5179299039720719 -0.025969862370476448  2.5113420526420085 -0.1218226033892305  2.4970062636023074 -0.21667018057928833  2.4618177011842097 -0.35607450428924581  2.4478075861721367 -0.40206475887841242  2.4313455921567133 -0.44746362137473705  2.4122169086329754 -0.49214252398105601  2.3901563359375153 -0.53595130483154207  2.3648455811488631 -0.57871283913347427  2.3359081146447807 -0.62021444777164081  2.3029090877643412 -0.66019589799326173  2.26538191116473 -0.69833804413851674  2.1804524740449551 -0.77018273531944581  2.1330497809272155 -0.80388521563881421  2.0803037308289278 -0.83498822570404629  2.0218467763115768 -0.86304814966279086  1.9575081389884872 -0.8875674257742503  1.8873270793672419 -0.9079907577630365  1.8119383061594818 -0.92375552640924075  1.7328034994644643 -0.93440979160760984  1.6518000626788285 -0.93973748593587147  1.5707963267948963 -0.93973748601687512 
 0 11 0.78539816339745161 9 2.1598449493429914 9 2.6752624940725678 9 3.1262528457109444 9 3.9154859610781019 9 5.099335634128848 9 5.6912604706542176 9 6.2831853071795862 11
7 0 0  10 83 10  1.570796326794899 1.0701416143903086  1.4990249646500233 1.0701416143185369  1.4272545126501677 1.0670099308191987  1.3566595511149102 1.0607470763231948  1.2884371661707212 1.0514463847726501  1.2235591583292058 1.0393011175468323  1.1626354825277305 1.0245664086010948  1.1059168054367201 1.0075153879092649  1.0534064310061104 0.98841085248710259  1.004994208564022 0.96749588446163892  0.87697963716622795 0.90278814841983801  0.80715405442680743 0.85499013056343609  0.74962893290696686 0.8030350440321854  0.70199386941167174 0.7480511701920477  0.66234802294184192 0.69077226976060047  0.62927099311527857 0.63172425742704941  0.6016560940607405 0.57130828111023679  0.57867740588975991 0.50981277804388259  0.55970845470933406 0.44747507836642758  0.51728485230387922 0.2742488743365829  0.50113544877785898 0.16201257112106759  0.49333642367491848 0.048791572198751965  0.49284381138568278 -0.064808626411831938  0.49952884102822281 -0.17825346693280153  0.51359466311259894 -0.29103806283819722  0.53653333160036709 -0.40252892014905228  0.57012423416199454 -0.51187314752905877  0.61884213489414552 -0.61774326969089488  0.71722388686146876 -0.75434433743540408  0.74726661281126672 -0.79068175231042759  0.78092180337139527 -0.82594107582834797  0.81866848838703843 -0.8599276249373814  0.8610239920158671 -0.89240393916669647  0.90856875801303738 -0.92308019790460405  0.96191393537374625 -0.95160035900137208  1.0215579275793649 -0.97753306233255799  1.087645986838623 -1.0003888454900116  1.2227750356301512 -1.0365929895067805  1.2904145856822278 -1.050772674461637  1.3623311264305358 -1.0619210372919952  1.4378615018576966 -1.0697349185407803  1.5159595546319906 -1.0739515894438227  1.595019706057792 -1.0744130675215273  1.6732465328028412 -1.0711247042816923  1.7491626863737182 -1.0642488880940228  1.8217080446860365 -1.0540276843332443  2.0100938139933371 -1.0175172333358173  2.1175995080338907 -0.98492643485042208  2.2091406971740071 -0.94452576608455274  2.2848136360407807 -0.89829987067787442  2.3481764673488215 -0.84783095386228524  2.4009086486767046 -0.79405268917616922  2.4452004966296954 -0.73778730690537486  2.482380639641633 -0.67955318982785684  2.5136294638629444 -0.61977940962289668  2.5791043187914879 -0.4672971547239485  2.6070077148235167 -0.37306570425817992  2.6265055213676636 -0.27717926580332908  2.6392403576066501 -0.1802574509468764  2.6461174113458883 -0.082736631127580229  2.6475644240910698 0.015016127869068896  2.643624513330181 0.11266170145765424  2.6339550445246047 0.20984945974047675  2.6177102488145407 0.3061361879965851  2.5809295245096076 0.44820229259378114  2.5666004414049803 0.49516359000630378  2.5499888977355973 0.54164594304790892  2.5308309551533967 0.58754995637279228  2.5087925442383296 0.6327549766192534  2.483463616255055 0.67711337685304884  2.4543388056539803 0.7204406391416398  2.4207880591594315 0.76249927530977035  2.3820515957619013 0.80297788854420082  2.2925973450490744 0.87996199372135009  2.2418799567803944 0.91646762325672171  2.1843656739074504 0.9505794918659376  2.1192258221271913 0.98180250937002711  2.0456135137937963 1.0095085423672572  1.9631640638690442 1.0329961380775785  1.8717270697816275 1.0513819853949826  1.7736390104037127 1.0638879778070987  1.6722176188901601 1.0701416142888871  1.5707963267948997 1.0701416143903106 
 0 11 0.39269908169872386 9 1.1290098598838285 9 2.4175537217077601 9 2.900757669891735 9 3.3235611245527141 9 4.0634671702094334 9 5.1733262386945098 9 5.7282557729370494 9 6.2831853071795871 11
2 6 6 1 0 -0 1 4.3863424398922612
Curves 3
2 0 0 0 -2.4492935982947064e-16 -1 0 1 -2.4492935982947064e-16 0 0 0 1 5
2 0 -2.9500000000000002 0 0 -1 0 0 -0 -1 1 0 0 4.0370162248868899
2 0 -3.5 0 0 1 0 0 -0 1 1 0 -0 4.3863424398922612
Polygon3D 0
PolygonOnTriangulations 0
Surfaces 3
4 0 0 0 0 0 1 1 0 -0 -0 1 0 5
4 0 0 0 0 0 1 1 0 -0 -0 1 0 5
1 0 10 0 -0 1 0 0 0 1 1 0 -0 
Triangulations 0

TShapes 20
Ve
1e-07
3.06161699786838e-16 -7.49879891330929e-32 5
0 0

0101101
*
Ed
 1e-07 1 1 1
2  1 1 0 0 6.28318530717959
0

0101100
-20 6 +20 6 *
Ve
1e-07
3.06161699786838e-16 -7.49879891330929e-32 -5
0 0

0101101
*
Ed
 1e-07 1 1 0
1  1 0 4.71238898038469 7.85398163397448
3  2 3CN 1 0 4.71238898038469 7.85398163397448
0

0101000
-20 6 +18 6 *
Ed
 1e-07 1 1 1
2  4 1 0 0 6.28318530717959
0

0101100
+18 6 -18 6 *
Wi

0101000
-19 5 +17 5 +16 5 -17 5 *
Ve
2.97541497881386e-07
0 -2.95 -4.03701622488689
0 0

0101101
*
Ed
 2.97541497881386e-07 1 1 0
1  2 0 0 6.28318530717959
2  5 1 5 0 6.28318530717959
2  6 2 7 0 6.28318530717959
0

0101100
+14 8 -14 8 *
Wi

0101000
-13 0 *
Fa
0  1e-07 1 5

0101000
+15 0 +12 0 *
Ve
2.69871818572275e-07
0 -3.5 4.38634243989226
0 0

0101101
*
Ed
 2.69871818572275e-07 1 1 0
1  3 0 0 6.28318530717959
2  7 2 9 0 6.28318530717959
2  8 3 10 0 6.28318530717959
0

0101100
+10 11 -10 11 *
Wi

0101000
+9 0 *
Wi

0101000
+13 2 *
Fa
0  1e-07 2 9

0101000
+8 0 +7 0 *
Wi

0101000
+9 0 *
Fa
0  1e-07 3 10

0101000
+5 0 *
Sh

0101000
+11 2 +6 0 -4 0 *
So

0100000
+3 0 *
Co

1100000
+2 0 *

+1 1 