DBRep_DrawableShape

CASCADE Topology V1, (c) Matra-Datavision
Locations 2
1
              1               0               0               0 
              0 2.22044604925031e-16              -1               2 
              0               1 2.22044604925031e-16               0 
2  1 -1 0
Curve2ds 4
1 0 2.0943951023931957 1 0 
1 0 3.1415926535897931 1 0 
1 6.2831853071795862 4.4408920985006262e-16 0 1 
1 0 4.4408920985006262e-16 0 1 
Curves 3
2 0 0 -0.43301270189221935 0 0 1 1 0 -0 -0 1 0 4.8499999046325684
2 0 0 -6.123233995736766e-17 0 0 1 1 0 -0 -0 1 0 4.5999999046325684
2 5.0999999046325684 0 0 -0 1 0 1 0 0 0 0 -1 0.5
Polygon3D 0
PolygonOnTriangulations 0
Surfaces 1
5 0 0 0 -0 -0 -1 1 0 -0 -0 1 0 5.0999999046325684 0.5
Triangulations 0

TShapes 9
Ve
1e-07
4.84999990463257 2.43301270189222 -9.61481343191782e-17
0 0

0101101
*
Ed
 1e-07 1 1 0
1  1 0 0 6.28318530717959
2  1 1 0 0 6.28318530717959
0

0101100
+9 2 -9 2 *
Ve
1e-07
4.59999990463257 2 -1.35963107344689e-32
0 0

0101101
*
Ed
 1e-07 1 1 0
1  2 0 0 6.28318530717959
2  2 1 0 0 6.28318530717959
0

0101100
+7 2 -7 2 *
Ed
 1e-07 1 1 0
1  3 0 2.0943951023932 3.14159265358979
3  3 4CN 1 0 2.0943951023932 3.14159265358979
0

0101000
+9 2 -7 2 *
Wi

0101000
+8 0 -6 0 -5 0 +5 0 *
Fa
0  1e-07 1 0

0101000
+4 0 *
Sh

0101000
-3 0 *
So

1100000
+2 0 *

+1 1 