DBRep_DrawableShape

CASCADE Topology V1, (c) Matra-Datavision
Locations 5
1
              1               0               0               0 
              0               1               0               0 
              0               0               1               0 
1
              1               0               0               0 
              0               1               0               0 
              0               0               1               0 
2  1 -1 2 -1 0
1
              1               0               0              -5 
              0               1               0             -13 
              0               0               1            -4.8 
2  1 -1 0
Curve2ds 6
1 6.2831853071795862 -6.2831853071795862 0 1 
1 0 -6.2831853071795862 0 1 
1 0 -1.5707963267948966 1 0 
1 0 1.5707963267948966 1 0 
7 0 0  10 74 9  4.7123889803846897 0.92729521800161219  4.8171087368043493 0.9272952178968924  4.9218283401132794 0.91815641811808746  5.022461232234491 0.89988188051211182  5.1149263528641313 0.87309328430274036  5.1965487470151857 0.839116588307661  5.2680589931551367 0.79934751524706371  5.3299335217452608 0.75483942988648778  5.3833144398595323 0.70653101397238061  5.4291564829746317 0.65514208568735033  5.5369617305475014 0.50697794449987643  5.5852272959164111 0.40506846483620507  5.6179363513947465 0.29869651313060785  5.6388790217461064 0.18968579907050298  5.6495268541621044 0.079183617679518647  5.6509712307015434 -0.031818121280139167  5.6430226598749869 -0.14246222469569148  5.6250291686519631 -0.25177610753854651  5.5949325001882686 -0.35850771300460976  5.532128378658248 -0.49883936966479769  5.5128091134812545 -0.5364546340565447  5.491115838520388 -0.57330271308925029  5.4668363546950189 -0.6092572041501475  5.4397312041995374 -0.64417116775343342  5.4095341521910685 -0.67787321984571169  5.3759591517331611 -0.7101622959652325  5.3387218129952654 -0.74080238621637318  5.297583618171557 -0.76952157344668115  5.2129156041868141 -0.81921126155862145  5.1703277409004809 -0.84070162981926566  5.1245831711875054 -0.86029473044004856  5.0756778762319295 -0.87777698437636609  5.0237032175896781 -0.89292548372951475  4.9689070008034237 -0.9055185233676486  4.9117361935563686 -0.91535551214323818  4.8528274388569619 -0.92228298546146215  4.7929382371265108 -0.92621617932392497  4.6276636972434302 -0.92875218812381222  4.5218446393337217 -0.92114459971253382  4.419518995564431 -0.90423054048005724  4.3249753357376903 -0.87855272312299348  4.2413263036869466 -0.8454104897682555  4.1679539773031138 -0.80626149546878878  4.1044217670860235 -0.76218481876276201  4.0495979115730734 -0.71416148734715534  4.0025065365423318 -0.66293879452617099  3.9018064387771956 -0.52842236843000201  3.8567140435340477 -0.44189800657682038  3.8238536486234809 -0.35162977296223519  3.8006605815724468 -0.2589321969176126  3.7857070183817996 -0.16468782560014006  3.7781635228515369 -0.069591818763547059  3.7776377896163469 0.025742369101237728  3.7842843624485454 0.1207251379647544  3.798733879956508 0.21467641918246599  3.8341246289821198 0.35267368687454725  3.848207425914743 0.39818448518064453  3.8647431313291007 0.44309153429479753  3.8839408472699382 0.48726440795577075  3.9060573767779303 0.53055134132884829  3.9313995410907707 0.57277397589282375  3.9603278467362344 0.61371910819047992  3.9932539680481973 0.65312744379957111  4.0306123166345014 0.69068347084141202  4.1149352340123819 0.76134588976713491  4.1619001492994645 0.79445222419251016  4.2140363024853285 0.8249619722454099  4.2716635651828252 0.85244401735399156  4.3349124429078074 0.87641838801937411  4.4036952053429559 0.89635484349055328  4.4773677168175707 0.91172363227124154  4.5545425702527123 0.92210436967678722  4.6334656675397614 0.92729521792268899  4.7123889803846888 0.92729521800161097 
 0 11 0.78539816339745017 9 2.1598449493429941 9 2.6752624940725638 9 3.1262528457109435 9 3.9154859610781036 9 5.0993356341288463 9 5.6912604706542158 9 6.2831853071795853 11
2 4.7999999999999998 5 1 0 -0 1 4
Curves 2
2 0 0 0 -2.4492935982947064e-16 -1 0 1 -2.4492935982947064e-16 0 0 0 1 5
2 0 -3 0 0 1 0 0 -0 1 1 0 -0 4
Polygon3D 0
PolygonOnTriangulations 0
Surfaces 2
4 0 0 0 0 0 1 1 0 -0 -0 1 0 5
1 0 10 0 -0 1 0 0 0 1 1 0 -0 
Triangulations 0

TShapes 15
Ve
1e-07
3.06161699786838e-16 -7.49879891330929e-32 5
0 0

0101101
*
Ve
1e-07
3.06161699786838e-16 -7.49879891330929e-32 -5
0 0

0101101
*
Ed
 1e-07 1 1 0
1  1 0 4.71238898038469 7.85398163397448
3  1 2CN 1 0 4.71238898038469 7.85398163397448
0

0101000
-15 3 +14 3 *
Ed
 1e-07 1 1 1
2  3 1 0 0 6.28318530717959
0

0101100
+14 3 -14 3 *
Ed
 1e-07 1 1 1
2  4 1 0 0 6.28318530717959
0

0101100
-15 3 +15 3 *
Wi

0101000
+13 2 +12 2 -13 2 -11 2 *
Ve
3.02619427406132e-07
0 -3 4
0 0

0101101
*
Ed
 3.02619427406132e-07 1 1 0
1  2 0 0 6.28318530717959
2  5 1 2 0 6.28318530717959
2  6 2 4 0 6.28318530717959
0

0101100
+9 5 -9 5 *
Wi

0101000
+8 0 *
Fa
0  1e-07 1 2

0101000
+10 0 +7 0 *
Wi

0101000
+8 0 *
Fa
0  1e-07 2 4

0101000
+5 0 *
Sh

0101000
+6 0 -4 0 *
So

0100000
+3 0 *
Co

1100000
+2 0 *

+1 1 