DBRep_DrawableShape

CASCADE Topology V1, (c) Matra-Datavision
Locations 11
1
              1               0               0               0 
              0               1               0               0 
              0               0               1               0 
1
              1               0               0               0 
              0               1               0               0 
              0               0               1               0 
1
              1               0               0               0 
              0               1               0               0 
              0               0               1               0 
2  2 1 3 1 0
1
              1               0               0              -6 
              0               1               0              -8 
              0               0               1              -6 
1
              1               0               0               0 
              0               1               0            -2.1 
              0               0               1               0 
2  1 -1 3 -1 2 -1 0
2  6 1 2 1 3 1 0
1
              1               0               0               0 
              0               1               0             4.2 
              0               0               1               0 
2  1 -1 0
2  1 -1 9 -1 0
Curve2ds 8
2 6 6 1 0 -0 1 4.3806392227619018
7 0 0  10 65 8  1.5707963267948957 0.81847784563951076  1.4868805696540368 0.81847784555559477  1.4029655773268257 0.81115456019036603  1.3214055672851373 0.79651030819757129  1.2445814109501954 0.77489242186275076  1.1742422691404499 0.74703827548182744  1.1109803167732024 0.71382650582891072  1.0546666262796407 0.67608575158224082  1.0050240994220527 0.63454058608677533  0.96155537423318138 0.58982652444279782  0.85767278901535282 0.45962922418587143  0.80899959719723857 0.36872086331638754  0.7751312159326289 0.27265307861032151  0.75327658616588455 0.1734440151136539  0.74195813480582729 0.072457291366575305  0.74052093475402214 -0.029161529675542398  0.74888239054030237 -0.13032101998891008  0.76776691316427959 -0.22988869216355984  0.79883785269135654 -0.32637880124217339  0.87863621477504739 -0.4861261615273762  0.92100564227621362 -0.55166152802848956  0.97254225677897921 -0.61336422952081193  1.0343484947225079 -0.67016279553354252  1.1079609145235736 -0.72058631099935155  1.1937528857088182 -0.76310114000807516  1.2932360214690561 -0.79539401669171639  1.4017444391756726 -0.81543661686282576  1.513469426311929 -0.82258860987971283  1.7054535884807518 -0.81314408026521134  1.7865957650490962 -0.80203797995056547  1.864401872378221 -0.78402242697923152  1.9368408753551194 -0.75956602146034125  2.0026714066589193 -0.72944114583151531  2.0616123956220691 -0.69448111448509731  2.1139076041908993 -0.65544281686729844  2.1599060151593514 -0.61298932486485536  2.2001037367026268 -0.56769160245550854  2.2872524993191172 -0.44855218952255155  2.3275322783849868 -0.37176297044552031  2.357387223641672 -0.29131137943465718  2.3783793631184382 -0.20841472362144486  2.3915022409746598 -0.12396940332610029  2.3973174668688442 -0.038720683482870298  2.396038360448165 0.04664774781770973  2.3874853001817042 0.13145724661797731  2.371072891615615 0.21492934218723692  2.3331637809357426 0.33664782270212917  2.3183123659926048 0.37663902718184838  2.3011211802627045 0.41592488573582775  2.2814396937945576 0.45436847726828089  2.2590936046637786 0.4918156841132359  2.2338865429953634 0.52809149966757707  2.2056063146244851 0.56299554904691562  2.1740407312758658 0.59629781849075847  2.1390082534973613 0.62773767862167995  2.061809450380387 0.68632507346120464  2.0196435515503719 0.71347264375336827  1.9738078391772125 0.73819016661514569  1.9242908178849878 0.76017119535461752  1.8711913342392812 0.77909347142091667  1.8148090597998816 0.79463445720375592  1.7557084422615421 0.80650370170090935  1.6947027280638594 0.81448628796764955  1.6327497571511802 0.81847784557755721  1.5707963267948977 0.81847784563951187 
 0 11 0.78539816339744739 9 2.1598449493429821 9 3.1906800388021335 9 3.9638063558965033 9 5.1234958315380483 9 5.7033405693588142 9 6.2831853071795862 11
7 0 0  8 16 3  1.5707963267948961 0.029323196610509774  1.5592778328067458 0.029323196598991279  1.547759458731889 0.024153136637198536  1.5389512803994876 0.013818317965814231  1.535571549231463 -1.7621459846850485e-11  1.5389512804158585 -0.013818317997635887  1.547759458754399 -0.024153136660243213  1.5592778328360775 -0.029323196610509774  1.5823148207537157 -0.029323196610509774  1.5938331948325413 -0.024153136660235219  1.602641373177903 -0.013818317997667862  1.6060211043368327 -1.7582379996383679e-11  1.6026413731951834 0.013818317965792914  1.5938331948568703 0.024153136637208306  1.5823148207830473 0.029323196598991276  1.5707963267948952 0.029323196610509746 
 0 9 3.1415926535897931 7 6.2831853071795862 9
7 0 0  10 56 7  4.7123889803846861 0.52661672909399748  4.7580505570045606 0.52661672904833579  4.8037120209364659 0.52263196246935428  4.8487184447348124 0.51466272858464324  4.8924123505440242 0.50279653790901946  4.934200194484422 0.48721155880386713  4.9736086224610823 0.46815739612181917  5.0103051117626149 0.44592813775851797  5.0440796967677812 0.42083791093714956  5.0748065616103979 0.39320449605540936  5.1507610269417885 0.31108222470644842  5.189580236808256 0.25199554624772202  5.2185583717817279 0.18776296581618118  5.2379761673306344 0.1200267414915686  5.2482268462044885 0.050231920370933381  5.2495287535712123 -0.020302348608902322  5.2418668566253475 -0.090294775605443078  5.2250246765263411 -0.1584136764831377  5.1986547230135551 -0.22317987744902865  5.1356802245207529 -0.32786205628753468  5.1032822263784832 -0.36994262614291795  5.0654379135543426 -0.4085678503711051  5.0221845481049971 -0.44302553606430595  4.9737317254475784 -0.47258342070563231  4.9205395161174241 -0.49649828018518749  4.8635177756590569 -0.51410531283827365  4.8040529680931794 -0.5249477369709229  4.7436796459101807 -0.52885604244237228  4.6390122221406171 -0.5237119698168976  4.5944717320878512 -0.51765551949503663  4.5508681631281522 -0.50778418837024308  4.5088030997900201 -0.49421634047300811  4.468798154374074 -0.47714993362564606  4.431254106692359 -0.45684183316140353  4.396442788301588 -0.43358258158954943  4.3645291541723941 -0.4076756199168835  4.3356064358644257 -0.37942461309318881  4.2708721497156317 -0.30368105237330478  4.2388468078302823 -0.25363037216347112  4.2137699783136702 -0.19997977364849401  4.1955017134943766 -0.1437003621214103  4.1838402964074506 -0.085680634790220589  4.1786343183287205 -0.026738596900703255  4.1798329855437073 0.032339937206455178  4.1874944648997978 0.090760518856478303  4.2017542745960634 0.14768901802998327  4.2437215725454207 0.25677357927061734  4.2714289332070621 0.30892977341864025  4.3059840483474545 0.35780594351672335  4.347499399795197 0.40245329914614558  4.395974405342713 0.44184256056905724  4.4511388275423087 0.47491028487274889  4.5122341907699592 0.50055404990052921  4.5775445236140513 0.5179290528931233  4.6449668089339768 0.52661672902657541  4.7123889803846835 0.52661672909399759 
 0 11 0.78539816339748436 9 2.1598449493430647 9 3.1906800388022409 9 3.963806355896585 9 5.1234958315380856 9 6.2831853071795862 11
1 6.2831853071795862 -6.2831853071795862 0 1 
1 0 -6.2831853071795862 0 1 
1 0 -1.5707963267948966 1 0 
1 0 1.5707963267948966 1 0 
Curves 3
2 0 1.9999999999999996 0 0 1 0 0 -0 1 1 0 -0 4.3806392227619018
2 0 3.897420635251772 0 0 1 0 0 -0 1 1 0 -0 0.17591396720054525
2 0 0 0 -2.4492935982947064e-16 -1 0 1 -2.4492935982947064e-16 0 0 0 1 0.34999999403953552
Polygon3D 0
PolygonOnTriangulations 0
Surfaces 3
1 0 10 0 -0 1 0 0 0 1 1 0 -0 
4 0 0 0 0 0 1 1 0 -0 -0 1 0 6
4 0 0 0 0 0 1 1 0 -0 -0 1 0 0.34999999403953552
Triangulations 0

TShapes 20
Ve
5.38963415282276e-07
0 2 4.3806392227619
0 0

0101101
*
Ed
 5.38963415282276e-07 1 1 0
1  1 0 0 6.28318530717959
2  1 1 5 0 6.28318530717959
2  2 2 6 0 6.28318530717959
0

0101100
+20 7 -20 7 *
Wi

0101000
+19 0 *
Fa
0  1e-07 1 5

0101000
+18 0 *
Wi

0101000
+19 4 *
Ve
1.736232122928e-07
0 3.89742063525177 0.175913967200545
0 0

0101101
*
Ed
 1.736232122928e-07 1 1 0
1  2 0 0 6.28318530717959
2  3 2 8 0 6.28318530717959
2  4 3 9 0 6.28318530717959
0

0101100
+15 10 -15 10 *
Wi

0101000
-14 0 *
Fa
0  1e-07 2 8

0101000
+16 0 +13 0 *
Ve
1e-07
2.14313186201055e-17 4.2 0.349999994039536
0 0

0101101
*
Ve
1e-07
2.14313186201055e-17 4.2 -0.349999994039536
0 0

0101101
*
Ed
 1e-07 1 1 0
1  3 0 4.71238898038469 7.85398163397448
3  5 6CN 3 0 4.71238898038469 7.85398163397448
0

0101000
-11 11 +10 11 *
Ed
 1e-07 1 1 1
2  7 3 0 0 6.28318530717959
0

0101100
+10 11 -10 11 *
Ed
 1e-07 1 1 1
2  8 3 0 0 6.28318530717959
0

0101100
-11 11 +11 11 *
Wi

0101000
+9 9 +8 9 -9 9 -7 9 *
Wi

0101000
+14 0 *
Fa
0  1e-07 3 9

0101000
+6 0 +5 0 *
Sh

0101000
-17 4 +12 0 +4 0 *
So

0100000
+3 0 *
Co

1100000
+2 0 *

+1 1 