DBRep_DrawableShape

CASCADE Topology V1, (c) Matra-Datavision
Locations 2
1
              1               0               0               0 
              0 2.22044604925031e-16              -1            2.43 
              0               1 2.22044604925031e-16               0 
2  1 -1 0
Curve2ds 4
1 0 0 1 0 
1 0 3.1415926535897931 1 0 
1 6.2831853071795862 0 0 1 
1 0 0 0 1 
Curves 3
2 0 0 0 0 0 1 1 0 -0 -0 1 0 4.8500000014901161
2 0 0 -1.2246468173960125e-17 0 0 1 1 0 -0 -0 1 0 4.6499999985098839
2 4.75 0 0 -0 1 0 1 0 0 0 0 -1 0.10000000149011612
Polygon3D 0
PolygonOnTriangulations 0
Surfaces 1
5 0 0 0 -0 -0 -1 1 0 -0 -0 1 0 4.75 0.10000000149011612
Triangulations 0

TShapes 9
Ve
1e-07
4.85000000149012 2.43 0
0 0

0101101
*
Ed
 1e-07 1 1 0
1  1 0 0 6.28318530717959
2  1 1 0 0 6.28318530717959
0

0101100
+9 2 -9 2 *
Ve
1e-07
4.64999999850988 2.43 -2.71926218741395e-33
0 0

0101101
*
Ed
 1e-07 1 1 0
1  2 0 0 6.28318530717959
2  2 1 0 0 6.28318530717959
0

0101100
+7 2 -7 2 *
Ed
 1e-07 1 1 0
1  3 0 0 3.14159265358979
3  3 4CN 1 0 0 3.14159265358979
0

0101000
+9 2 -7 2 *
Wi

0101000
+8 0 -6 0 -5 0 +5 0 *
Fa
0  1e-07 1 0

0101000
+4 0 *
Sh

0101000
-3 0 *
So

1100000
+2 0 *

+1 1 