DBRep_DrawableShape

CASCADE Topology V1, (c) Matra-Datavision
Locations 2
1
0.156434581768306 -0.98768832210722               0            -4.5 
0.98768832210722 0.156434581768306               0            -0.5 
              0               0               1               0 
2  1 -1 0
Curve2ds 6
1 0 0 1 0 
1 0 6.2831853071795862 1 0 
1 0 0 0 1 
2 -0 -0.40000000596046448 0 1 1 -0 0.40000000596046448
1 3.4906585039886591 1.6653345369377348e-16 0 1 
2 -0 -0.40000000596046448 0 1 1 -0 0.40000000596046448
Curves 3
2 0 0 0 0 0 1 1 0 -0 -0 1 0 2.4000000059604645
2 2 0 0 -0 1 0 1 0 0 0 0 -1 0.40000000596046448
2 -1.8793852415718169 -0.68404028665133731 0 0.34202014332566866 -0.93969262078590843 0 -0.93969262078590843 -0.34202014332566866 0 0 -0 -1 0.40000000596046448
Polygon3D 0
PolygonOnTriangulations 0
Surfaces 3
5 0 0 0 -0 -0 -1 1 0 -0 -0 1 0 2 0.40000000596046448
1 2.4000000059604645 0 0 -0 -1 0 0 -0 -1 1 0 0 
1 -2.2552622954871846 -0.82084834602020373 0 -0.34202014332566866 0.93969262078590843 0 -0 0 -1 -0.93969262078590843 -0.34202014332566866 0 
Triangulations 0

TShapes 13
Ve
1e-07
-4.12455700282364 1.87045197894441 0
0 0

0101101
*
Ve
1e-07
-4.04205868838718 -2.85590530024629 0
0 0

0101101
*
Ed
 1e-07 1 1 0
1  1 0 0 3.49065850398866
3  1 2CN 1 0 0 3.49065850398866
0

0101000
+13 2 -12 2 *
Ed
 1e-07 1 1 0
1  2 0 0 6.28318530717959
2  3 1 0 0 6.28318530717959
2  4 2 0 0 6.28318530717959
0

0101100
+13 2 -13 2 *
Ed
 1e-07 1 1 0
1  3 0 0 6.28318530717959
2  5 1 0 0 6.28318530717959
2  6 3 0 0 6.28318530717959
0

0101100
+12 2 -12 2 *
Wi

0101000
+11 0 -11 0 -10 0 +9 0 *
Fa
0  1e-07 1 0

0101000
+8 0 *
Wi

0101000
+10 0 *
Fa
0  1e-07 2 0

0101000
-6 0 *
Wi

0101000
+9 0 *
Fa
0  1e-07 3 0

0101000
-4 0 *
Sh

0101000
-7 0 +5 0 -3 0 *
So

1100000
+2 0 *

+1 1 