DBRep_DrawableShape

CASCADE Topology V1, (c) Matra-Datavision
Locations 2
1
              1               0               0               0 
              0               1               0             4.2 
              0               0               1               0 
2  1 -1 0
Curve2ds 4
1 0 1.5707963267948966 1 0 
1 6.2831853071795862 -6.2831853071795862 0 1 
1 0 -6.2831853071795862 0 1 
1 0 -1.5707963267948966 1 0 
Curves 1
2 0 0 0 -2.4492935982947064e-16 -1 0 1 -2.4492935982947064e-16 0 0 0 1 0.34999999403953552
Polygon3D 0
PolygonOnTriangulations 0
Surfaces 1
4 0 0 0 0 0 1 1 0 -0 -0 1 0 0.34999999403953552
Triangulations 0

TShapes 9
Ve
1e-07
2.14313186201055e-17 4.2 0.349999994039536
0 0

0101101
*
Ed
 1e-07 1 1 1
2  1 1 0 0 6.28318530717959
0

0101100
+9 2 -9 2 *
Ve
1e-07
2.14313186201055e-17 4.2 -0.349999994039536
0 0

0101101
*
Ed
 1e-07 1 1 0
1  1 0 4.71238898038469 7.85398163397448
3  2 3CN 1 0 4.71238898038469 7.85398163397448
0

0101000
-9 2 +7 2 *
Ed
 1e-07 1 1 1
2  4 1 0 0 6.28318530717959
0

0101100
+7 2 -7 2 *
Wi

0101000
-8 0 +6 0 +5 0 -6 0 *
Fa
0  1e-07 1 0

0101000
+4 0 *
Sh

0101100
+3 0 *
So

1100100
+2 0 *

+1 1 