DBRep_DrawableShape

CASCADE Topology V1, (c) Matra-Datavision
Locations 4
1
              1               0               0               0 
              0               1               0               0 
              0               0               1               0 
1
              1               0               0               0 
              0               1               0            -2.1 
              0               0               1               0 
1
              1               0               0              -6 
              0               1               0              -8 
              0               0               1              -6 
2  1 -1 0
Curve2ds 4
7 0 0  10 29 4  4.7123889803846923 0.18282871674409454  4.7414319719497158 0.18282871671505158  4.7704746662223707 0.17775964310461573  4.7984556768754416 0.16762232812441497  4.8243066194121633 0.15266046694795252  4.8470696458272053 0.13337070550274649  4.8659838031019413 0.11045042826952642  4.8805122875307312 0.084730287428433138  4.890316617387886 0.057117946277374446  4.8952176971428258 0.028558941432891394  4.8952176971077215 -0.042838412376601916  4.8841893394419458 -0.085676437111260384  4.8621353087073658 -0.12532429083330499  4.829915238020476 -0.15856752622494241  4.7893501281505451 -0.18257129222183721  4.7430383386090398 -0.19490188080089865  4.6956645064929035 -0.19452950741651875  4.6511564394604648 -0.18214498140287105  4.6126739922357523 -0.15946200395844704  4.552099884240107 -0.098372399243083025  4.5300085349372239 -0.059965221759284759  4.5182853180158418 -0.016129682436258008  4.5181405286421068 0.030012766719664796  4.5297229370335117 0.075017339486294077  4.5524770398624241 0.11564059316151543  4.5852862476895098 0.14861437054423732  4.625259792941506 0.17142341359715374  4.6688244931295966 0.18282871670053008  4.7123889803846879 0.18282871674409432 
 0 11 1.5707963267948966 9 3.9269908169872414 9 6.2831853071795862 11
2 6 6 1 0 -0 1 1.0908712114635704
7 0 0  10 65 8  1.5707963267948957 0.81847784563951076  1.4868805696540368 0.81847784555559477  1.4029655773268257 0.81115456019036603  1.3214055672851373 0.79651030819757129  1.2445814109501954 0.77489242186275076  1.1742422691404499 0.74703827548182744  1.1109803167732024 0.71382650582891072  1.0546666262796407 0.67608575158224082  1.0050240994220527 0.63454058608677533  0.96155537423318138 0.58982652444279782  0.85767278901535282 0.45962922418587143  0.80899959719723857 0.36872086331638754  0.7751312159326289 0.27265307861032151  0.75327658616588455 0.1734440151136539  0.74195813480582729 0.072457291366575305  0.74052093475402214 -0.029161529675542398  0.74888239054030237 -0.13032101998891008  0.76776691316427959 -0.22988869216355984  0.79883785269135654 -0.32637880124217339  0.87863621477504739 -0.4861261615273762  0.92100564227621362 -0.55166152802848956  0.97254225677897921 -0.61336422952081193  1.0343484947225079 -0.67016279553354252  1.1079609145235736 -0.72058631099935155  1.1937528857088182 -0.76310114000807516  1.2932360214690561 -0.79539401669171639  1.4017444391756726 -0.81543661686282576  1.513469426311929 -0.82258860987971283  1.7054535884807518 -0.81314408026521134  1.7865957650490962 -0.80203797995056547  1.864401872378221 -0.78402242697923152  1.9368408753551194 -0.75956602146034125  2.0026714066589193 -0.72944114583151531  2.0616123956220691 -0.69448111448509731  2.1139076041908993 -0.65544281686729844  2.1599060151593514 -0.61298932486485536  2.2001037367026268 -0.56769160245550854  2.2872524993191172 -0.44855218952255155  2.3275322783849868 -0.37176297044552031  2.357387223641672 -0.29131137943465718  2.3783793631184382 -0.20841472362144486  2.3915022409746598 -0.12396940332610029  2.3973174668688442 -0.038720683482870298  2.396038360448165 0.04664774781770973  2.3874853001817042 0.13145724661797731  2.371072891615615 0.21492934218723692  2.3331637809357426 0.33664782270212917  2.3183123659926048 0.37663902718184838  2.3011211802627045 0.41592488573582775  2.2814396937945576 0.45436847726828089  2.2590936046637786 0.4918156841132359  2.2338865429953634 0.52809149966757707  2.2056063146244851 0.56299554904691562  2.1740407312758658 0.59629781849075847  2.1390082534973613 0.62773767862167995  2.061809450380387 0.68632507346120464  2.0196435515503719 0.71347264375336827  1.9738078391772125 0.73819016661514569  1.9242908178849878 0.76017119535461752  1.8711913342392812 0.77909347142091667  1.8148090597998816 0.79463445720375592  1.7557084422615421 0.80650370170090935  1.6947027280638594 0.81448628796764955  1.6327497571511802 0.81847784557755721  1.5707963267948977 0.81847784563951187 
 0 11 0.78539816339744739 9 2.1598449493429821 9 3.1906800388021335 9 3.9638063558965033 9 5.1234958315380483 9 5.7033405693588142 9 6.2831853071795862 11
2 6 6 1 0 -0 1 4.3806392227619018
Curves 2
2 0 -8 0 0 1 0 0 -0 1 1 0 -0 1.0908712114635704
2 0 1.9999999999999996 0 0 1 0 0 -0 1 1 0 -0 4.3806392227619018
Polygon3D 0
PolygonOnTriangulations 0
Surfaces 4
4 0 0 0 0 0 1 1 0 -0 -0 1 0 6
1 0 0 0 -0 1 0 0 0 1 1 0 -0 
4 0 0 0 0 0 1 1 0 -0 -0 1 0 6
1 0 10 0 -0 1 0 0 0 1 1 0 -0 
Triangulations 0

TShapes 17
Ve
1.9747972950288e-07
0 -8 1.09087121146357
0 0

0101101
*
Ed
 1.9747972950288e-07 1 1 0
1  1 0 0 6.28318530717959
2  1 1 2 0 6.28318530717959
2  2 2 3 0 6.28318530717959
0

0101100
+17 4 -17 4 *
Wi

0101000
-16 0 *
Fa
0  1e-07 1 2

0101000
+15 0 *
Wi

0101000
+16 0 *
Fa
0  1e-07 2 3

0101000
+13 0 *
Sh

0101000
+14 0 +12 0 *
So

0100000
+11 0 *
Ve
5.38963415282276e-07
0 2 4.3806392227619
0 0

0101101
*
Ed
 5.38963415282276e-07 1 1 0
1  2 0 0 6.28318530717959
2  3 3 2 0 6.28318530717959
2  4 4 3 0 6.28318530717959
0

0101100
+9 4 -9 4 *
Wi

0101000
+8 0 *
Fa
0  1e-07 3 2

0101000
+7 0 *
Wi

0101000
+8 0 *
Fa
0  1e-07 4 3

0101000
+5 0 *
Sh

0101000
+6 0 -4 0 *
So

0100000
+3 0 *
Co

1100000
+10 0 +2 0 *

+1 1 