DBRep_DrawableShape

CASCADE Topology V1, (c) Matra-Datavision
Locations 8
1
              1               0               0               0 
              0               1               0               0 
              0               0               1               0 
1
              1               0               0               0 
              0               1               0               0 
              0               0               1               0 
1
              1               0               0               0 
              0               1               0               0 
              0               0               1               0 
2  2 1 3 1 0
2  1 -1 3 -1 2 -1 0
1
              1               0               0               0 
              0               1               0            -5.9 
              0               0               1               0 
2  1 -1 0
2  1 -1 6 -1 0
Curve2ds 10
1 0 1.5707963267948966 1 0 
1 6.2831853071795862 -6.2831853071795862 0 1 
1 0 -6.2831853071795862 0 1 
1 0 -1.5707963267948966 1 0 
7 0 0  10 74 9  4.7123889803846915 -0.93973748601687512  4.8198691555708857 -0.93973748590939499  4.9273490108389524 -0.93035774115833192  5.0304609830491245 -0.91160191797825973  5.124834906659089 -0.88413466380734462  5.2077007432235405 -0.84938562901515979  5.2800643915543333 -0.80881225306075066  5.3424442662508227 -0.76349603637936525  5.3961194922885625 -0.71439708905472799  5.4421049541988875 -0.66224230076706647  5.5500388780353633 -0.51204849867946656  5.5980896535838838 -0.40893246771932468  5.6305659429635853 -0.30145423229760127  5.6513381061377004 -0.19140017775771412  5.6618835156550631 -0.079893902963704022  5.6633192531298846 0.032098168699121743  5.6554441372281872 0.14374333029036279  5.6376040662071318 0.25409194171106719  5.6077170395743501 0.36192340824976937  5.545101541891901 0.50387895576930963  5.5258235269483373 0.54194851261915455  5.5041544965857661 0.57926312813798364  5.4798733826377433 0.61569696395228368  5.4527289947481119 0.65110307910213616  5.4224398945316361 0.68530934518600295  5.3887002708415404 0.71811274353524768  5.3512004647333251 0.7492732741857151  5.3096723227693321 0.77851208236629066  5.2239825063839209 0.82915527326133454  5.1807991700925049 0.8510821225953118  5.1343217069730667 0.87109635642108896  5.0845297145599035 0.88897557509232394  5.0315007187382434 0.90448612523080862  4.9754791349258696 0.9173936087729242  4.9169270316380453 0.92748416363820174  4.8565174500480959 0.93459325421113504  4.7950599862663976 0.93863001528619949  4.6254325885040037 0.94123284435754606  4.5167991389898816 0.93342496375862538  4.411898955644574 0.91606209575547837  4.3153303931467235 0.88972370716510341  4.2303561849985272 0.8558136895444477  4.1560658341622911 0.81586028629681095  4.0919838152185548 0.77097057868377306  4.0368348107804195 0.72215037389105419  3.9895793415531058 0.67015465023463305  3.8887285976332704 0.53377492902237389  3.8437800382103022 0.44619485642679635  3.8111119785260597 0.3549449173047492  3.7880874294467501 0.26132065400124704  3.7732571052838466 0.1661876751102227  3.7657793679740279 0.070225062438112218  3.7652554032762056 -0.025969862370476448  3.7718432545090024 -0.1218226033892305  3.7861790435772789 -0.21667018057928833  3.8213676059953769 -0.35607450428924581  3.8353777210048889 -0.40206475887841242  3.8518397150191399 -0.44746362137473705  3.8709683985314762 -0.49214252398105601  3.8930289712229245 -0.53595130483154207  3.9183397260238655 -0.57871283913347427  3.9472771925383938 -0.62021444777164081  3.9802762194128269 -0.66019589799326173  4.0178033960148554 -0.69833804413851674  4.1027328331346302 -0.77018273531944581  4.1501355262587198 -0.80388521563881421  4.2028815763280365 -0.83498822570404629  4.2613385307602583 -0.86304814966279086  4.3256771680025849 -0.8875674257742503  4.3958582276827656 -0.9079907577630365  4.4712470010195826 -0.92375552640924075  4.5503818076989164 -0.93440979160760984  4.6313852445007582 -0.93973748593587147  4.7123889803846888 -0.93973748601687512 
 0 11 0.78539816339743851 9 2.1598449493429577 9 2.6752624940725362 9 3.126252845710912 9 3.9154859610780739 9 5.0993356341288276 9 5.6912604706542043 9 6.2831853071795862 11
7 0 0  10 74 9  1.5707963267948974 -0.93973748601687512  1.463316151608701 -0.93973748590939499  1.355836296454072 -0.93035774115833192  1.2527243240110693 -0.91160191797825973  1.1583504002483096 -0.88413466380734462  1.0754845640040003 -0.84938562901515979  1.0031209141452564 -0.80881225306075066  0.94074104067840381 -0.76349603637936525  0.88706581499172898 -0.71439708905472799  0.84108035298069872 -0.66224230076706647  0.73314642914422223 -0.51204849867946645  0.68509565401291184 -0.40893246772114367  0.65261936296519707 -0.30145423229760127  0.63184720290882979 -0.19140017775771412  0.62130178950610571 -0.079893902963704022  0.61986605609126855 0.032098168699121743  0.62774116847867845 0.14374333029036279  0.64558124131872319 0.2540919417092482  0.67546826760523615 0.36192340824976937  0.73808376528768438 0.50387895576930963  0.75736178023081036 0.54194851261915455  0.77903081059910573 0.57926312813798364  0.80331192453929057 0.61569696395228368  0.83045631242202944 0.65110307910213616  0.86074541264461002 0.68530934518600295  0.89448503634057219 0.71811274353524768  0.93198484244214386 0.7492732741857151  0.97351298441025447 0.77851208236629066  1.0592028007956658 0.82915527326133454  1.1023861370891193 0.8510821225953118  1.1488636001964714 0.87109635642108896  1.1986555926107483 0.88897557509232394  1.2516845884353338 0.90448612523080862  1.3077061722407961 0.9173936087729242  1.3662582755264541 0.92748416363820174  1.4266678571307696 0.93459325421113504  1.4881253209131879 0.93863001528619949  1.6577527186755816 0.94123284435754606  1.7663861684650328 0.93342496375862538  1.8712863509135786 0.91606209575547837  1.9678549138479866 0.88972370716510341  2.0528291221125983 0.8558136895444477  2.1271194733562879 0.81586028629681095  2.191201490801177 0.77097057868377306  2.2463504965089669 0.72215037389105419  2.2936059656264804 0.67015465023463305  2.3944567095463158 0.53377492902237389  2.4394052689683572 0.44619485642679635  2.4720733285390453 0.3549449173047492  2.4950978776309056 0.26132065400124704  2.5099282017581572 0.1661876751102227  2.5174059391225456 0.070225062438112218  2.5179299039720719 -0.025969862370476448  2.5113420526420085 -0.1218226033892305  2.4970062636023074 -0.21667018057928833  2.4618177011842097 -0.35607450428924581  2.4478075861721367 -0.40206475887841242  2.4313455921567133 -0.44746362137473705  2.4122169086329754 -0.49214252398105601  2.3901563359375153 -0.53595130483154207  2.3648455811488631 -0.57871283913347427  2.3359081146447807 -0.62021444777164081  2.3029090877643412 -0.66019589799326173  2.26538191116473 -0.69833804413851674  2.1804524740449551 -0.77018273531944581  2.1330497809272155 -0.80388521563881421  2.0803037308289278 -0.83498822570404629  2.0218467763115768 -0.86304814966279086  1.9575081389884872 -0.8875674257742503  1.8873270793672419 -0.9079907577630365  1.8119383061594818 -0.92375552640924075  1.7328034994644643 -0.93440979160760984  1.6518000626788285 -0.93973748593587147  1.5707963267948963 -0.93973748601687512 
 0 11 0.78539816339745161 9 2.1598449493429914 9 2.6752624940725678 9 3.1262528457109444 9 3.9154859610781019 9 5.099335634128848 9 5.6912604706542176 9 6.2831853071795862 11
1 6.2831853071795862 -6.2831853071795862 0 1 
1 0 -6.2831853071795862 0 1 
1 0 -1.5707963267948966 1 0 
1 0 1.5707963267948966 1 0 
Curves 3
2 0 0 0 -2.4492935982947064e-16 -1 0 1 -2.4492935982947064e-16 0 0 0 1 5
2 0 -2.9500000000000002 0 0 -1 0 0 -0 -1 1 0 0 4.0370162248868899
2 0 0 0 -2.4492935982947064e-16 -1 0 1 -2.4492935982947064e-16 0 0 0 1 5
Polygon3D 0
PolygonOnTriangulations 0
Surfaces 2
4 0 0 0 0 0 1 1 0 -0 -0 1 0 5
4 0 0 0 0 0 1 1 0 -0 -0 1 0 5
Triangulations 0

TShapes 21
Ve
1e-07
3.06161699786838e-16 -7.49879891330929e-32 5
0 0

0101101
*
Ed
 1e-07 1 1 1
2  1 1 0 0 6.28318530717959
0

0101100
-21 5 +21 5 *
Ve
1e-07
3.06161699786838e-16 -7.49879891330929e-32 -5
0 0

0101101
*
Ed
 1e-07 1 1 0
1  1 0 4.71238898038469 7.85398163397448
3  2 3CN 1 0 4.71238898038469 7.85398163397448
0

0101000
-21 5 +19 5 *
Ed
 1e-07 1 1 1
2  4 1 0 0 6.28318530717959
0

0101100
+19 5 -19 5 *
Wi

0101000
-20 4 +18 4 +17 4 -18 4 *
Ve
2.97541497881386e-07
0 -2.95 -4.03701622488689
0 0

0101101
*
Ed
 2.97541497881386e-07 1 1 0
1  2 0 0 6.28318530717959
2  5 1 4 0 6.28318530717959
2  6 2 6 0 6.28318530717959
0

0101100
+15 7 -15 7 *
Wi

0101000
-14 0 *
Fa
0  1e-07 1 4

0101000
+16 0 +13 0 *
Ve
1e-07
3.06161699786838e-16 -5.9 5
0 0

0101101
*
Ve
1e-07
3.06161699786838e-16 -5.9 -5
0 0

0101101
*
Ed
 1e-07 1 1 0
1  3 0 4.71238898038469 7.85398163397448
3  7 8CN 2 0 4.71238898038469 7.85398163397448
0

0101000
-11 8 +10 8 *
Ed
 1e-07 1 1 1
2  9 2 0 0 6.28318530717959
0

0101100
+10 8 -10 8 *
Ed
 1e-07 1 1 1
2  10 2 0 0 6.28318530717959
0

0101100
-11 8 +11 8 *
Wi

0101000
+9 6 +8 6 -9 6 -7 6 *
Wi

0101000
+14 0 *
Fa
0  1e-07 2 6

0101000
+6 0 +5 0 *
Sh

0101000
+12 0 +4 0 *
So

0100000
+3 0 *
Co

1100000
+2 0 *

+1 1 